<svg xmlns="http://www.w3.org/2000/svg"><symbol id="cart" viewBox="0 0 127.4 127.4"><path fill="#11473d" d="M10 21.3a2.8 2.8 0 0 1 2.9-1.8h10.8a12.2 12.2 0 0 1 5 .8 5.7 5.7 0 0 1 3.1 3.7c4.1 15 8.1 30 12.2 45a.8.8 0 0 0 .9.6h48.2l2.6-.2a1.9 1.9 0 0 0 1.6-1 60.4 60.4 0 0 0 3.6-7.2c3.7-8.5 7.5-17.1 11.2-25.7a7.3 7.3 0 0 0 .8-3.6c0-.7-.2-1-.9-1.1H69.1c-8.7 0-17.3-.1-26 0a2.4 2.4 0 0 1-2.5-2.1 2.3 2.3 0 0 1 2.4-2.5h67.7a7.2 7.2 0 0 1 4.5 1.1 5.6 5.6 0 0 1 2.2 4.5 13.2 13.2 0 0 1-1.1 5.5l-11.9 27c-1 2.1-2 4.1-3.1 6.1a6.9 6.9 0 0 1-6.3 3.7H45.4l.6 1.6a9.5 9.5 0 0 0 3.5 4.4 6.9 6.9 0 0 0 3.7 1h41.3a2.3 2.3 0 0 1 .3 4.5H53.5c-4.6.1-8-2-10.4-5.9a26.3 26.3 0 0 1-2.8-7.2c-1.7-6.2-3.4-12.5-5.2-18.7l-7.5-26a5.7 5.7 0 0 0-4.8-3.8h-9.9a2.6 2.6 0 0 1-2.9-1.6zm83.2 89.1l-2.8-.8a10.4 10.4 0 1 1 5.2.7h-2.4zm7.2-10.7a6.2 6.2 0 0 0-6.1-6.3 6.3 6.3 0 0 0-6.2 6.3 6.2 6.2 0 1 0 12.3 0zm-49.7 10.7l-2-.5a10.3 10.3 0 0 1-7.3-8.9A10.4 10.4 0 0 1 62 97.7a10.7 10.7 0 0 1-7.9 12.4l-1.3.3zm7.2-10.9a6.2 6.2 0 1 0-12.3.6 6.2 6.2 0 0 0 6.5 5.9 6.2 6.2 0 0 0 5.8-6.5z"/><ellipse cx="51.7" cy="99.7" fill="none" rx="6.2" ry="6.3"/><ellipse cx="94.5" cy="99.7" fill="none" rx="6.2" ry="6.3"/></symbol><symbol id="hamburger" viewBox="0 0 127.4 127.4"><path fill="#11473d" d="M55.6 65.7H44.7c-9.5 0-18.9-.2-28.3.1-5.8.2-7.7-1.9-10.3-3.5s4.4-4.8 8.6-4.8h40.9"/><path fill="#11473d" d="M54 57.5c18 0 35.1.2 52.2-.1 7.3-.1 10.5 1.9 14.9 3.3a1 1 0 0 1 0 1.8c-4.2 1.5-7.5 3.4-14.8 3.3-17.1-.2-34.2-.1-52.3-.1m1.6-22.6H44.7c-9.5 0-18.9-.2-28.3.1-5.8.2-7.7-1.9-10.3-3.5s4.4-4.8 8.6-4.8h40.9"/><path fill="#11473d" d="M54 34.9c18 0 35.1.2 52.2-.1 7.3-.1 10.5 1.9 14.9 3.3a1 1 0 0 1 0 1.8c-4.2 1.5-7.5 3.4-14.8 3.3-17.1-.2-34.2-.1-52.3-.1m1.6 45.2H44.7c-9.5 0-18.9-.2-28.3.1-5.8.2-7.7-1.9-10.3-3.5s4.4-4.7 8.6-4.8h40.9"/><path fill="#11473d" d="M54 80.1c18 0 35.1.2 52.2-.1 7.3-.1 10.5 1.9 14.9 3.3a1 1 0 0 1 0 1.8c-4.2 1.5-7.5 3.4-14.8 3.3-17.1-.2-34.2-.1-52.3-.1"/></symbol><symbol id="facebook" viewBox="0 0 127.4 127.4"><path fill="#fff" d="M63.2 109.9c-26.4-.8-45.2-21.4-44.3-48.4.8-22.9 22.8-43 46.1-42.2 26.3 1 45.3 21.9 44.3 48.7-.8 23.2-22.2 42.7-46.1 41.9zm6.4-18V67.4l9.9-.9v-9H70c-1.5-9.6-1.5-9.6 9.7-12.4v-9.2c-6 .9-13.4-.1-16.5 3.1s-4.3 11.6-6.5 18.5l-6.8.5v8.6l7.9.9v24.4z"/><path fill="#11473d" d="M49.9 66.6V58l6.8-.5s3-12 3.6-13.4 1.9-6.2 6.2-6.9a23.1 23.1 0 0 1 4.7-.7c2.1 0 6.3-.8 8.5-.6v9.2s-6.3 1.6-7.5 2.2-4.3.8-2.2 10.2h9.5v9l-9.9.9v24.5H57.8V67.5z"/></symbol><symbol id="instagram" viewBox="0 0 127.4 127.4"><path fill="#fff" d="M19.1 64.7c-1-26 23.6-46.5 45.9-45.6C90 20 110.4 40 110.4 65s-21.1 45.5-46 45.4a45.5 45.5 0 0 1-45.3-45.7zm20.2-4.8c0 8.4-.5 16.4.3 24.3.2 2.3 3.9 5.9 6.2 6 12.5.6 25 .6 37.5.1 2.1-.1 5.6-3.4 5.8-5.5.6-8.1.2-16.3.2-24.6H78.7c.1 15.6-3.3 20.5-14.2 20.4s-13.9-6.3-13.6-20.7zm49.9-2.8c0-4.8.2-7.5 0-10.1-.2-4.2-2.5-6.6-6.8-6.6l-35.4.2c-4.6 0-7 2.5-7.6 6.8s0 6 0 11.1c6.8-1.5 12.8-3.1 18.8-4.2a46.4 46.4 0 0 1 12.3-.9c6 .7 11.8 2.3 18.7 3.7zm-12.2 9c-.1-6.3-5.7-11.6-12.2-11.6s-12 5.5-12 11.8a12.3 12.3 0 0 0 12.5 11.9c6.5-.3 11.9-5.9 11.7-12.1z"/><path d="M82.6 41.9l-.4 6.3c-6.2 1.9-6.7-1.3-5.8-6.3z"/><path fill="#11473d" d="M39.4 56.5v-9.1s.1-6.8 7.6-6.8l32.3-.2s9.9-1.7 9.9 6.6v10.1a30.9 30.9 0 0 1-8.6-1.3 35 35 0 0 1-9.4-4.2 22.5 22.5 0 0 0-11.8.3c-3.5 1-4.8 2.5-8.5 3.7a23.5 23.5 0 0 1-11.5.9zm39.3 3.7h10.6l-.2 24.6s-.1 3.8-5.8 5.5H47.9a7.8 7.8 0 0 1-8.3-6.1l-.3-24.3h11.6s-.9 13.7 5.4 18.3 16.9.5 16.9.5 5.5-.2 5.5-18.5z"/><circle cx="64.9" cy="65.4" r="11.6" fill="#11473d"/></symbol><symbol id="plus" viewBox="0 0 127.4 127.4"><path fill="#11473d" d="M69.1 57.1c10.2 0 19.9.3 29.5-.1 4.2-.1 5.9 2.8 8.4 4.9a2.9 2.9 0 0 1 .1 2.7c-2.4 2.3-4.3 5-8.4 4.9-9.7-.3-19.3-.1-29.6-.1v4.1c0 8.4-.1 16.9.1 25.4.1 3.4-1.7 5.5-3.9 7.5a3 3 0 0 1-3 .2c-2.1-2.5-5-4.3-4.8-8.5.4-9.4.1-18.8.1-28.7h-8.2c-7.1 0-14.3-.4-21.3.1-4.4.3-5.8-2.8-7.8-5.2s3.3-7.1 6.5-7.1h30.8c0-10.3.1-20.1-.1-30 0-2.5.9-4.3 2.9-5.3s3.5-1.6 4.9-1.1a5.6 5.6 0 0 1 3.9 5.4c-.2 8.9-.1 17.7-.1 26.5z"/></symbol><symbol id="profile" viewBox="0 0 127.4 127.4"><path fill="#fff" d="M63.8 18c25.2.3 45.7 21.2 45.4 46.1s-21.5 45.2-46.6 44.8-44.7-21.5-44.3-46.3S39.5 17.7 63.8 18zM47.9 49.1c-1.3-6.2 1.1-10.5 6.2-13.7s13.1-3.1 19.3.3 4.1 8.1 4 12.9c0 1.8-.9 4.1-.2 5.5 2 3.3.3 6.1-.5 8.9a38.1 38.1 0 0 1-3.3 8.7c-3.2 5.9-1.4 10.6 2.5 15.4s14.1 6.6 18.7.6a39.3 39.3 0 0 0 0-48.4C84.3 25.7 65.3 20.6 49.1 27 23.7 37 16.2 69.8 34.6 89.8c1.1 1.2 3.2 2.7 4.2 2.4 3.8-1.2 7.8-2.6 10.8-5C55 83 55.5 79.3 52.9 73a100.7 100.7 0 0 0-4.1-9.5c-2.7-4.8-.3-9.7-.9-14.4z"/><path fill="#11473d" d="M47.9 49.1c.6 4.7-1.8 9.6.9 14.4a100.7 100.7 0 0 1 4.1 9.5c2.6 6.3 2.1 10-3.3 14.2-3 2.4-7 3.8-10.8 5-1 .3-3.1-1.2-4.2-2.4C16.2 69.8 23.7 37 49.1 27c16.2-6.4 35.2-1.3 45.5 12.3a39.3 39.3 0 0 1 0 48.4c-4.6 6-13.7 5.5-18.7-.6s-5.7-9.5-2.5-15.4a38.1 38.1 0 0 0 3.3-8.7c.8-2.8 2.5-5.6.5-8.9-.7-1.4.2-3.7.2-5.5.1-4.8.8-10.1-4-12.9s-12.8-4.3-19.3-.3-7.5 7.5-6.2 13.7z"/></symbol><symbol id="search" viewBox="0 0 127.4 127.4"><path fill="#fff" d="M22.7 56.4c0-16.8 12.5-30.8 30.2-32.8 13.8-1.5 29.3 6.5 34.6 23.6a31.2 31.2 0 0 1-2.8 25c-1.5 2.7-1 4.1 1 6l19.1 19 1.6 1.7c2.4 2.7 2.7 6.4.7 8.5s-6 2.4-8.8-.3c-6.3-6-12.4-12.3-18.6-18.4a16.6 16.6 0 0 1-1.3-1.4c-2.2-3.2-4.5-3.2-7.9-1.4C48.7 97 22.6 80.8 22.7 56.4zm59.5.4a26.4 26.4 0 1 0-26.3 26.3 26.4 26.4 0 0 0 26.3-26.3z"/><path fill="#11473d" d="M82.2 56.8a26.4 26.4 0 1 1-26.5-26.7 26.3 26.3 0 0 1 26.5 26.7z"/></symbol><symbol id="settings" viewBox="0 0 127.4 127.4"><path fill="#11473d" d="M97.9 52l-1.6-3.8c5.5-12.4 5.1-12.8 4.1-13.9l-7.1-6.8-.7-.6h-.8c-.4 0-1.7 0-12.3 4.8l-4-1.5c-5-12.6-5.6-12.6-7-12.6h-9.9c-1.5 0-2.1 0-6.8 12.6l-3.9 1.6c-7.2-3.1-11.5-4.6-12.6-4.6h-.9l-7.6 7.4c-1.1 1.1-1.5 1.5 4.3 13.7l-1.6 3.8c-12.9 5-12.9 5.4-12.9 7v9.7c0 1.5 0 2 12.9 6.7l1.6 3.7c-5.5 12.4-5.1 12.8-4 13.9l7 6.8.7.6h.8c.4 0 1.7 0 12.4-4.8l3.9 1.6c5.1 12.6 5.6 12.6 7.1 12.6h9.9c1.5 0 2 0 6.7-12.7l4-1.5c7.2 3 11.4 4.6 12.5 4.6h1l7.6-7.4c1.1-1.1 1.4-1.5-4.3-13.7l1.5-3.8c12.9-4.9 12.9-5.5 12.9-6.9v-9.8c0-1.6 0-2.1-12.9-6.7zM63.7 79.9a16.2 16.2 0 1 1 16.5-16.2 16.4 16.4 0 0 1-16.5 16.2z"/></symbol><symbol id="twitter" viewBox="0 0 127.4 127.4"><circle cx="63.7" cy="63.7" r="45.3" fill="#fff"/><path fill="#11473d" d="M37.3 58.2l3.6.4c-2.7-4.8-6.3-9.1-2.6-14.7 7.2 5.6 13.9 11.8 24.2 11.2.2-1.2.4-2.2.5-3.2 1.1-9.4 8.7-13.8 17.4-10.2 2.9 1.3 6.1 1.9 9.4 2.9l-1.2 2.5 3.1.8c-.1.5-.1 1-.3 1.2-3.1 2.1-4.1 4.9-4.6 8.8-3.6 25.4-26 35.4-50 25L49 79.6 35.7 59.3z"/></symbol></svg>