<svg id="Layer_1" data-name="Layer 1" xmlns="http://www.w3.org/2000/svg" width="0.4in" height="0.4in" viewBox="0 0 32 32"><title>logo-32</title><polygon points="1.2 12.7 9.4 9.1 12.6 10.9 12.6 9.7 14.5 9.7 14.5 11.8 16 12.8 16 14.7 14.5 13.7 14.5 19.8 4.1 19.7 4.2 13.4 1.2 14.7 1.2 12.7" fill="#40948a"/><polygon points="6 12.6 9.4 11 12.6 12.9 12.6 18.4 6 18.3 6 12.6" fill="#fff"/><rect x="8.3" y="12.5" width="0.9" height="0.92" fill="#eecf75"/><rect x="9.7" y="12.5" width="0.9" height="0.92" fill="#eecf75"/><rect x="9.7" y="14" width="0.9" height="0.92" fill="#eecf75"/><rect x="8.3" y="14" width="0.9" height="0.92" fill="#eecf75"/><polygon points="16 12.7 24.2 9.1 27.4 10.9 27.4 9.8 29.2 9.8 29.2 11.9 30.8 12.8 30.8 14.7 29.3 13.8 29.3 19.9 18.9 19.8 18.9 13.4 16 14.7 16 12.7" fill="#eecf75"/><polygon points="20.8 12.6 24.2 11 27.3 12.9 27.3 18.4 20.8 18.3 20.8 12.6" fill="#fff"/><rect x="23.1" y="12.6" width="0.9" height="0.92" fill="#40948a"/><rect x="24.4" y="12.6" width="0.9" height="0.92" fill="#40948a"/><rect x="24.4" y="14" width="0.9" height="0.92" fill="#40948a"/><rect x="23.1" y="14" width="0.9" height="0.92" fill="#40948a"/><path d="M5.8,22.4a.7.7,0,0,1-.7.5c-.6,0-.8-.4-.8-.9s.2-1,.8-1a.7.7,0,0,1,.7.6H5.6c0-.3-.2-.4-.5-.4a.8.8,0,0,0,0,1.6c.3,0,.4-.1.5-.4Z" fill="#40948a"/><path d="M7.8,22a.8.8,0,0,1-.9.9.8.8,0,0,1-.8-.9.9.9,0,0,1,.8-1A.9.9,0,0,1,7.8,22ZM6.2,22a.8.8,0,0,0,.7.8.7.7,0,0,0,.7-.8c0-.5-.2-.8-.7-.8A.7.7,0,0,0,6.2,22Z" fill="#40948a"/><path d="M8.2,22.9V21.1h.2l1.1,1.6h0V21.1h.1v1.8H9.4L8.3,21.2h0v1.7Z" fill="#40948a"/><path d="M10.2,22.9V21.1h.2l1.1,1.6h0V21.1h.1v1.8h-.2l-1.1-1.7h0v1.7Z" fill="#40948a"/><path d="M13.3,22h-1v.8h-.1V21.1h.1v.7h1Z" fill="#40948a"/><path d="M15.1,22.4a.7.7,0,0,1-.7.5.8.8,0,0,1-.8-.9.9.9,0,0,1,.8-1c.4,0,.7.2.7.6H15a.5.5,0,0,0-.6-.4.8.8,0,0,0,0,1.6.5.5,0,0,0,.6-.4Z" fill="#40948a"/><path d="M15.9,21.2h.2v1.7h-.2Z" fill="#40948a"/><path d="M18.1,22h-1v.8H17V21.1h.1v.7h1Z" fill="#40948a"/><path d="M18.5,21.1h.6a.9.9,0,0,1,0,1.8h-.6Zm.2,1.7h.4a.8.8,0,0,0,0-1.6h-.4Z" fill="#40948a"/><path d="M21.1,21.1h.2v1.7h-.2Z" fill="#40948a"/><path d="M22.7,21.1v1.8h-.2V21.1Z" fill="#40948a"/><path d="M23.7,22.9,23,21.1h.1l.4.9.3.8h0A3.1,3.1,0,0,1,24,22l.4-.9h.2l-.7,1.8Z" fill="#40948a"/><path d="M25,21.1v1.8h-.1V21.1Z" fill="#40948a"/><path d="M25.6,22.9V21.1h.2l1.1,1.6h0V21.1H27v1.8h-.2a12.6,12.6,0,0,0-1.1-1.7h0v1.7Z" fill="#40948a"/><path d="M29,22.9h-.1v-.3a.9.9,0,0,1-.6.3.8.8,0,0,1-.9-.9c0-.6.3-1,.9-1s.7.2.7.6h-.1a.5.5,0,0,0-.6-.4c-.5,0-.7.3-.7.8a.7.7,0,0,0,.7.8c.4,0,.6-.3.6-.7h-.6v-.2H29Z" fill="#40948a"/></svg>