<svg id="Layer_1" data-name="Layer 1" xmlns="http://www.w3.org/2000/svg" width="0.2in" height="0.2in" viewBox="0 0 16 16"><title>logo-16</title><polygon points="0.3 6.1 4.6 4.2 6.3 5.1 6.3 4.5 7.2 4.5 7.2 5.6 8 6.1 8 7.1 7.2 6.6 7.2 9.8 1.8 9.7 1.9 6.4 0.3 7.1 0.3 6.1" fill="#40948a"/><polygon points="2.8 6 4.6 5.2 6.2 6.2 6.2 9 2.8 9 2.8 6" fill="#fff"/><rect x="4" y="6" width="0.4" height="0.48" fill="#eecf75"/><rect x="4.7" y="6" width="0.4" height="0.48" fill="#eecf75"/><rect x="4.7" y="6.7" width="0.4" height="0.48" fill="#eecf75"/><rect x="4" y="6.7" width="0.4" height="0.48" fill="#eecf75"/><polygon points="8 6.1 12.2 4.2 13.9 5.1 13.9 4.5 14.9 4.5 14.9 5.6 15.7 6.1 15.7 7.1 14.9 6.6 14.9 9.8 9.5 9.7 9.5 6.4 8 7.1 8 6.1" fill="#eecf75"/><polygon points="10.5 6 12.3 5.2 13.9 6.2 13.9 9 10.5 9 10.5 6" fill="#fff"/><rect x="11.7" y="6" width="0.4" height="0.48" fill="#40948a"/><rect x="12.4" y="6" width="0.4" height="0.48" fill="#40948a"/><rect x="12.4" y="6.7" width="0.4" height="0.48" fill="#40948a"/><rect x="11.7" y="6.7" width="0.4" height="0.48" fill="#40948a"/><path d="M2.7,11.1c0,.2-.2.3-.4.3a.5.5,0,0,1,0-1c.3,0,.4.1.4.3H2.6c0-.2-.1-.2-.3-.2s-.3.2-.3.4.1.4.3.4.3-.1.3-.2Z" fill="#40948a"/><path d="M3.7,10.9c0,.2-.1.5-.4.5s-.4-.2-.4-.5.1-.5.4-.5S3.7,10.6,3.7,10.9Zm-.8,0a.4.4,0,0,0,.4.4.4.4,0,0,0,0-.8A.4.4,0,0,0,2.9,10.9Z" fill="#40948a"/><path d="M3.9,11.4v-1h.2a9,9,0,0,1,.5.9h0v-.9h.1v1H4.6L4,10.5H4v.9Z" fill="#40948a"/><path d="M5,11.4v-1h.1l.6.9h0a.9.9,0,0,1-.1-.5v-.4h.1v1H5.6a3.5,3.5,0,0,0-.6-.9H5c.1.1.1.2.1.4v.5Z" fill="#40948a"/><path d="M6.6,10.9H6.1v.4H6v-1h.1v.3h.5Z" fill="#40948a"/><path d="M7.5,11.1a.3.3,0,0,1-.3.3c-.3,0-.4-.2-.4-.5s.1-.5.4-.5a.3.3,0,0,1,.3.3h0c-.1-.2-.2-.2-.3-.2a.4.4,0,0,0,0,.8l.3-.2Z" fill="#40948a"/><path d="M8,10.5H8v.9H8Z" fill="#40948a"/><path d="M9.1,10.9H8.6v.4H8.5v-1h.1v.3h.5Z" fill="#40948a"/><path d="M9.3,10.4h.3a.5.5,0,0,1,0,1H9.3Zm.1.9h.2a.4.4,0,0,0,0-.8H9.4Z" fill="#40948a"/><path d="M10.6,10.4h.1v.9h-.1Z" fill="#40948a"/><path d="M11.5,10.4v1h-.1v-1Z" fill="#40948a"/><path d="M12,11.4l-.4-1h.1l.2.5c0,.2.1.3.1.4h0l.2-.4.2-.5h0l-.3,1Z" fill="#40948a"/><path d="M12.7,10.4v1h-.1v-1Z" fill="#40948a"/><path d="M13,11.4v-1h.1l.6.9h0a.9.9,0,0,1-.1-.5v-.4h.1v1h-.1a3.5,3.5,0,0,0-.6-.9h0v.9Z" fill="#40948a"/><path d="M14.7,11.4h0v-.2c-.1.1-.1.2-.3.2a.5.5,0,0,1,0-1,.3.3,0,0,1,.3.3h0c-.1-.2-.2-.2-.3-.2s-.4.1-.4.4a.4.4,0,0,0,.4.4c.2,0,.3-.1.3-.4h0Z" fill="#40948a"/></svg>