<svg id="Layer_1" data-name="Layer 1" xmlns="http://www.w3.org/2000/svg" width="3.6in" height="3.6in" viewBox="0 0 256 256"><title>logo-256</title><polygon points="6 98.3 73.8 68.2 100.4 83.3 100.4 73.7 115.5 73.7 115.5 91 128.3 99.2 128.3 114.8 115.8 106.8 115.8 157.2 29.8 156.4 30.2 103.8 6 114.8 6 98.3" fill="#40948a"/><polygon points="45.7 97.4 74 84 99.9 99.9 99.9 145.5 45.7 144.3 45.7 97.4" fill="#fff"/><rect x="64.6" y="96.9" width="7.1" height="7.62" fill="#eecf75"/><rect x="75.8" y="96.9" width="7.1" height="7.62" fill="#eecf75"/><rect x="75.8" y="108.8" width="7.1" height="7.62" fill="#eecf75"/><rect x="64.6" y="108.8" width="7.1" height="7.62" fill="#eecf75"/><polygon points="128.2 98.5 196 68.5 222.6 83.5 222.6 73.9 237.8 73.9 237.8 91.2 250.5 99.4 250.5 115 238 107 238 157.4 152 156.6 152.5 104 128.2 115 128.2 98.5" fill="#eecf75"/><polygon points="167.9 97.6 196.2 84.2 222.1 100.1 222.1 145.7 167.9 144.5 167.9 97.6" fill="#fff"/><rect x="186.8" y="97.1" width="7.1" height="7.62" fill="#40948a"/><rect x="198.1" y="97.1" width="7.1" height="7.62" fill="#40948a"/><rect x="198.1" y="109" width="7.1" height="7.62" fill="#40948a"/><rect x="186.8" y="109" width="7.1" height="7.62" fill="#40948a"/><path d="M43.7,178.7a5.6,5.6,0,0,1-5.8,4.3c-4.4,0-6.8-3.6-6.8-7.9s2.3-8,6.8-8,5.4,1.9,5.9,4.4H42.6a4.5,4.5,0,0,0-4.7-3.3c-3.9,0-5.5,3.5-5.5,6.9s1.6,6.8,5.6,6.8a4.4,4.4,0,0,0,4.5-3.2Z" fill="#40948a"/><path d="M60.1,174.9c0,4.3-2.3,8.1-7,8.1s-6.9-3.5-6.9-7.9,2.4-8,7-8S60.1,170.4,60.1,174.9Zm-12.7.1c0,3.5,2,6.9,5.7,6.9s5.7-3.3,5.7-6.9-1.9-6.8-5.6-6.8S47.4,171.5,47.4,175Z" fill="#40948a"/><path d="M63.5,182.8V167.3h1.7c2.5,3.7,8.1,12.4,9.1,14.1h0c-.1-2.3-.1-4.6-.1-7.1v-7h1.2v15.5H73.8l-9.2-14.3h0c.1,2.1.1,4.3.1,7.1v7.2Z" fill="#40948a"/><path d="M80,182.8V167.3h1.7c2.4,3.7,8.1,12.4,9.1,14.1h0c-.1-2.3-.1-4.6-.1-7.1v-7h1.2v15.5H90.3l-9.2-14.3h0c.1,2.1.1,4.3.1,7.1v7.2Z" fill="#40948a"/><path d="M105.5,175.2H97.6v6.5h8.7l-.2,1.1H96.4V167.3h9.5v1.1H97.6v5.7h7.9Z" fill="#40948a"/><path d="M120.9,178.7a5.6,5.6,0,0,1-5.8,4.3c-4.5,0-6.8-3.6-6.8-7.9s2.3-8,6.8-8,5.3,1.9,5.8,4.4h-1.2a4.5,4.5,0,0,0-4.7-3.3c-3.8,0-5.4,3.5-5.4,6.9s1.6,6.8,5.5,6.8a4.6,4.6,0,0,0,4.6-3.2Z" fill="#40948a"/><path d="M127.5,168.4h-5.2v-1.1h11.6v1.1h-5.2v14.4h-1.2Z" fill="#40948a"/><path d="M145.3,175.2h-7.9v6.5h8.7l-.2,1.1h-9.7V167.3h9.5v1.1h-8.3v5.7h7.9Z" fill="#40948a"/><path d="M149.1,167.3h5.1c4.3,0,7.2,3,7.2,7.6s-2.9,7.9-7.2,7.9h-5.1Zm1.2,14.4H154c4.1,0,6.1-2.9,6.1-6.7s-1.8-6.6-6.1-6.6h-3.7Z" fill="#40948a"/><path d="M170.6,167.3h1.1v14.4h8.4l-.3,1.1h-9.2Z" fill="#40948a"/><path d="M183.6,167.3v15.5h-1.2V167.3Z" fill="#40948a"/><path d="M191.8,182.8l-5.7-15.5h1.3l3,8.1c.8,2.4,1.8,4.9,2.2,6.2h0c.3-1.1,1.4-3.8,2.3-6.1l3.1-8.2h1.2l-5.9,15.5Z" fill="#40948a"/><path d="M203,167.3v15.5h-1.1V167.3Z" fill="#40948a"/><path d="M207.6,182.8V167.3h1.8c2.4,3.7,8,12.4,9,14.1h0c-.1-2.3-.1-4.6-.1-7.1v-7h1.2v15.5h-1.6l-9.2-14.3h0c.1,2.1.1,4.3.1,7.1v7.2Z" fill="#40948a"/><path d="M235.8,182.8h-1a17.2,17.2,0,0,1-.2-2.5c-.5,1.1-1.7,2.7-5,2.7s-6.7-3.4-6.7-7.8,2.5-8.1,7-8.1,5.5,1.7,6,4.6h-1.2c-.6-2.2-2.2-3.5-4.9-3.5s-5.6,3-5.6,6.9,1.7,6.8,5.5,6.8,4.9-2.6,4.9-6v-.2h-5v-1.1h6.2Z" fill="#40948a"/></svg>