<svg id="Layer_1" data-name="Layer 1" xmlns="http://www.w3.org/2000/svg" width="0.9in" height="0.9in" viewBox="0 0 64 64"><title>logo-64</title><polygon points="1 24.1 18.2 16.5 24.9 20.3 24.9 17.9 28.8 17.9 28.8 22.2 32 24.3 32 28.3 28.8 26.3 28.8 39 7 38.8 7.2 25.5 1 28.3 1 24.1" fill="#40948a"/><polygon points="11.1 23.9 18.3 20.5 24.8 24.5 24.8 36.1 11.1 35.8 11.1 23.9" fill="#fff"/><rect x="15.9" y="23.7" width="1.8" height="1.93" fill="#eecf75"/><rect x="18.7" y="23.7" width="1.8" height="1.93" fill="#eecf75"/><rect x="18.7" y="26.8" width="1.8" height="1.93" fill="#eecf75"/><rect x="15.9" y="26.8" width="1.8" height="1.93" fill="#eecf75"/><polygon points="32 24.2 49.2 16.5 55.9 20.3 55.9 17.9 59.8 17.9 59.8 22.3 63 24.4 63 28.3 59.8 26.3 59.8 39.1 38 38.9 38.1 25.5 32 28.3 32 24.2" fill="#eecf75"/><polygon points="42 23.9 49.2 20.5 55.8 24.5 55.8 36.1 42 35.8 42 23.9" fill="#fff"/><rect x="46.8" y="23.8" width="1.8" height="1.93" fill="#40948a"/><rect x="49.7" y="23.8" width="1.8" height="1.93" fill="#40948a"/><rect x="49.7" y="26.8" width="1.8" height="1.93" fill="#40948a"/><rect x="46.8" y="26.8" width="1.8" height="1.93" fill="#40948a"/><path d="M10.6,44.5a1.5,1.5,0,0,1-1.5,1.1,1.8,1.8,0,0,1-1.7-2c0-1.1.6-2.1,1.7-2.1a1.4,1.4,0,0,1,1.5,1.2h-.3a1.2,1.2,0,0,0-1.2-.9c-1,0-1.4.9-1.4,1.8s.4,1.7,1.4,1.7a1.1,1.1,0,0,0,1.2-.8Z" fill="#40948a"/><path d="M14.7,43.5c0,1.1-.5,2.1-1.8,2.1a1.8,1.8,0,0,1-1.7-2c0-1.2.6-2.1,1.8-2.1A1.8,1.8,0,0,1,14.7,43.5Zm-3.2,0A1.6,1.6,0,0,0,13,45.3c1,0,1.4-.8,1.4-1.8A1.5,1.5,0,0,0,13,41.8,1.6,1.6,0,0,0,11.5,43.5Z" fill="#40948a"/><path d="M15.6,45.5V41.6H16c.6.9,2.1,3.1,2.3,3.6h0V41.6h.3v3.9h-.4l-2.3-3.6h0v3.6Z" fill="#40948a"/><path d="M19.8,45.5V41.6h.4c.6.9,2.1,3.1,2.3,3.6h0V41.6h.3v3.9h-.4l-2.3-3.6H20a9.7,9.7,0,0,1,.1,1.8v1.8Z" fill="#40948a"/><path d="M26.2,43.6h-2v1.6h2.2v.3H23.9V41.6h2.4v.3H24.2v1.4h2Z" fill="#40948a"/><path d="M30.1,44.5a1.3,1.3,0,0,1-1.4,1.1,1.8,1.8,0,0,1-1.8-2,1.9,1.9,0,0,1,1.8-2.1,1.3,1.3,0,0,1,1.4,1.2h-.3a1.1,1.1,0,0,0-1.1-.9c-1,0-1.4.9-1.4,1.8s.4,1.7,1.4,1.7a1.1,1.1,0,0,0,1.1-.8Z" fill="#40948a"/><path d="M31.8,41.9H30.5v-.3h2.9v.3H32.1v3.6h-.3Z" fill="#40948a"/><path d="M36.3,43.6h-2v1.6h2.2v.3H34V41.6h2.4v.3H34.3v1.4h2Z" fill="#40948a"/><path d="M37.3,41.6h1.3a1.7,1.7,0,0,1,1.8,1.9,1.8,1.8,0,0,1-1.8,2H37.3Zm.3,3.6h.9a1.5,1.5,0,0,0,1.6-1.7,1.5,1.5,0,0,0-1.6-1.6h-.9Z" fill="#40948a"/><path d="M42.7,41.6H43v3.6h2.1v.3H42.7Z" fill="#40948a"/><path d="M46,41.6v3.9h-.3V41.6Z" fill="#40948a"/><path d="M48.1,45.5l-1.4-3.9H47l.8,2,.5,1.6h0l.6-1.5.8-2.1H50l-1.5,3.9Z" fill="#40948a"/><path d="M51,41.6v3.9h-.3V41.6Z" fill="#40948a"/><path d="M52.1,45.5V41.6h.5l2.3,3.6h0a10.9,10.9,0,0,1-.1-1.8V41.6h.3v3.9h-.4l-2.3-3.6h0v3.6Z" fill="#40948a"/><path d="M59.3,45.5H59v-.6a1.4,1.4,0,0,1-1.3.7,1.8,1.8,0,0,1-1.7-2c0-1.2.6-2.1,1.8-2.1a1.4,1.4,0,0,1,1.5,1.2H59a1.3,1.3,0,0,0-1.2-.9c-1,0-1.5.8-1.5,1.8a1.5,1.5,0,0,0,1.4,1.7c1,0,1.3-.7,1.3-1.5H57.7v-.2h1.6Z" fill="#40948a"/></svg>